<mxfile host="app.diagrams.net" modified="2024-05-28T04:43:29.994Z" agent="Mozilla/5.0 (Windows NT 10.0; Win64; x64) AppleWebKit/537.36 (KHTML, like Gecko) Chrome/125.0.0.0 Safari/537.36" etag="ZxgyakmzCoS5KJoOeCdW" version="24.4.9" type="github">
  <diagram name="Page-1" id="JQiX8kT1mr57dHyr-gnF">
    <mxGraphModel dx="1050" dy="530" grid="1" gridSize="10" guides="1" tooltips="1" connect="1" arrows="1" fold="1" page="1" pageScale="1" pageWidth="850" pageHeight="1100" math="0" shadow="0">
      <root>
        <mxCell id="0" />
        <mxCell id="1" parent="0" />
        <mxCell id="DEPRjO1uCGuWEpomlT2Z-29" value="Book" style="swimlane;childLayout=stackLayout;horizontal=1;startSize=30;horizontalStack=0;rounded=1;fontSize=14;fontStyle=0;strokeWidth=2;resizeParent=0;resizeLast=1;shadow=0;dashed=0;align=center;arcSize=4;whiteSpace=wrap;html=1;" vertex="1" parent="1">
          <mxGeometry x="460" y="50" width="160" height="100" as="geometry" />
        </mxCell>
        <mxCell id="DEPRjO1uCGuWEpomlT2Z-30" value="+ISBN (PK)&lt;div&gt;+Title&lt;/div&gt;&lt;div&gt;+Author&lt;/div&gt;&lt;div&gt;+Genre&lt;/div&gt;" style="align=left;strokeColor=none;fillColor=none;spacingLeft=4;fontSize=12;verticalAlign=top;resizable=0;rotatable=0;part=1;html=1;" vertex="1" parent="DEPRjO1uCGuWEpomlT2Z-29">
          <mxGeometry y="30" width="160" height="70" as="geometry" />
        </mxCell>
        <mxCell id="DEPRjO1uCGuWEpomlT2Z-31" value="Members" style="swimlane;childLayout=stackLayout;horizontal=1;startSize=30;horizontalStack=0;rounded=1;fontSize=14;fontStyle=0;strokeWidth=2;resizeParent=0;resizeLast=1;shadow=0;dashed=0;align=center;arcSize=4;whiteSpace=wrap;html=1;" vertex="1" parent="1">
          <mxGeometry x="20" y="30" width="160" height="130" as="geometry" />
        </mxCell>
        <mxCell id="DEPRjO1uCGuWEpomlT2Z-32" value="+Member ID (PK)&lt;div&gt;+Name&lt;/div&gt;&lt;div&gt;+Date of Birth&lt;/div&gt;&lt;div&gt;+Phone Number&lt;/div&gt;&lt;div&gt;+Address&lt;/div&gt;&lt;div&gt;+Email&lt;/div&gt;" style="align=left;strokeColor=none;fillColor=none;spacingLeft=4;fontSize=12;verticalAlign=top;resizable=0;rotatable=0;part=1;html=1;" vertex="1" parent="DEPRjO1uCGuWEpomlT2Z-31">
          <mxGeometry y="30" width="160" height="100" as="geometry" />
        </mxCell>
        <mxCell id="DEPRjO1uCGuWEpomlT2Z-33" value="Loans" style="swimlane;childLayout=stackLayout;horizontal=1;startSize=30;horizontalStack=0;rounded=1;fontSize=14;fontStyle=0;strokeWidth=2;resizeParent=0;resizeLast=1;shadow=0;dashed=0;align=center;arcSize=4;whiteSpace=wrap;html=1;verticalAlign=top;spacingLeft=4;fontFamily=Helvetica;fontColor=default;resizable=0;fillColor=none;direction=east;" vertex="1" parent="1">
          <mxGeometry x="240" y="200" width="160" height="120" as="geometry" />
        </mxCell>
        <mxCell id="DEPRjO1uCGuWEpomlT2Z-34" value="&lt;div&gt;+Employee ID (FK)&lt;/div&gt;&lt;div&gt;+Loan Date (CK)&lt;/div&gt;&lt;div&gt;+Return Date&lt;/div&gt;&lt;div&gt;+ISBN (CK) (FK)&lt;/div&gt;&lt;div&gt;+Member ID (CK) (FK)&lt;/div&gt;" style="align=left;strokeColor=none;fillColor=none;spacingLeft=4;fontSize=12;verticalAlign=top;resizable=0;rotatable=0;part=1;html=1;fontFamily=Helvetica;fontColor=default;" vertex="1" parent="DEPRjO1uCGuWEpomlT2Z-33">
          <mxGeometry y="30" width="160" height="90" as="geometry" />
        </mxCell>
        <mxCell id="DEPRjO1uCGuWEpomlT2Z-35" value="Librarians" style="swimlane;childLayout=stackLayout;horizontal=1;startSize=30;horizontalStack=0;rounded=1;fontSize=14;fontStyle=0;strokeWidth=2;resizeParent=0;resizeLast=1;shadow=0;dashed=0;align=center;arcSize=4;whiteSpace=wrap;html=1;verticalAlign=top;spacingLeft=4;fontFamily=Helvetica;fontColor=default;resizable=0;fillColor=none;" vertex="1" parent="1">
          <mxGeometry x="460" y="340" width="160" height="120" as="geometry" />
        </mxCell>
        <mxCell id="DEPRjO1uCGuWEpomlT2Z-36" value="+Employee ID (PK)&lt;div&gt;+Name&lt;/div&gt;&lt;div&gt;+Phone Number&lt;/div&gt;&lt;div&gt;+Address&lt;/div&gt;&lt;div&gt;&amp;nbsp;&lt;/div&gt;" style="align=left;strokeColor=none;fillColor=none;spacingLeft=4;fontSize=12;verticalAlign=top;resizable=0;rotatable=0;part=1;html=1;fontFamily=Helvetica;fontColor=default;" vertex="1" parent="DEPRjO1uCGuWEpomlT2Z-35">
          <mxGeometry y="30" width="160" height="90" as="geometry" />
        </mxCell>
        <mxCell id="DEPRjO1uCGuWEpomlT2Z-47" style="edgeStyle=orthogonalEdgeStyle;rounded=0;orthogonalLoop=1;jettySize=auto;html=1;exitX=0.5;exitY=1;exitDx=0;exitDy=0;fontFamily=Helvetica;fontSize=12;fontColor=default;resizable=0;" edge="1" parent="DEPRjO1uCGuWEpomlT2Z-35" source="DEPRjO1uCGuWEpomlT2Z-36" target="DEPRjO1uCGuWEpomlT2Z-36">
          <mxGeometry relative="1" as="geometry" />
        </mxCell>
        <mxCell id="DEPRjO1uCGuWEpomlT2Z-39" value="" style="edgeStyle=entityRelationEdgeStyle;fontSize=12;html=1;endArrow=ERzeroToMany;startArrow=ERmandOne;rounded=0;fontFamily=Helvetica;fontColor=default;resizable=0;exitX=1;exitY=0.5;exitDx=0;exitDy=0;entryX=0;entryY=0.5;entryDx=0;entryDy=0;" edge="1" parent="1" source="DEPRjO1uCGuWEpomlT2Z-32" target="DEPRjO1uCGuWEpomlT2Z-33">
          <mxGeometry width="100" height="100" relative="1" as="geometry">
            <mxPoint x="370" y="330" as="sourcePoint" />
            <mxPoint x="470" y="230" as="targetPoint" />
          </mxGeometry>
        </mxCell>
        <mxCell id="DEPRjO1uCGuWEpomlT2Z-41" value="" style="edgeStyle=entityRelationEdgeStyle;fontSize=12;html=1;endArrow=ERzeroToMany;startArrow=ERmandOne;rounded=0;fontFamily=Helvetica;fontColor=default;resizable=0;exitX=0;exitY=0.25;exitDx=0;exitDy=0;entryX=1;entryY=0.25;entryDx=0;entryDy=0;" edge="1" parent="1" source="DEPRjO1uCGuWEpomlT2Z-30" target="DEPRjO1uCGuWEpomlT2Z-34">
          <mxGeometry width="100" height="100" relative="1" as="geometry">
            <mxPoint x="190" y="135" as="sourcePoint" />
            <mxPoint x="250" y="270" as="targetPoint" />
            <Array as="points">
              <mxPoint x="440" y="200" />
            </Array>
          </mxGeometry>
        </mxCell>
        <mxCell id="DEPRjO1uCGuWEpomlT2Z-49" value="" style="edgeStyle=entityRelationEdgeStyle;fontSize=12;html=1;endArrow=ERzeroToMany;startArrow=ERmandOne;rounded=0;fontFamily=Helvetica;fontColor=default;resizable=0;exitX=0;exitY=0.5;exitDx=0;exitDy=0;entryX=1;entryY=0.5;entryDx=0;entryDy=0;" edge="1" parent="1" source="DEPRjO1uCGuWEpomlT2Z-35" target="DEPRjO1uCGuWEpomlT2Z-34">
          <mxGeometry width="100" height="100" relative="1" as="geometry">
            <mxPoint x="480" y="118" as="sourcePoint" />
            <mxPoint x="480" y="380" as="targetPoint" />
            <Array as="points">
              <mxPoint x="460" y="220" />
            </Array>
          </mxGeometry>
        </mxCell>
      </root>
    </mxGraphModel>
  </diagram>
</mxfile>
